<?xml version="1.0" encoding="UTF-8"?>
<!DOCTYPE svg PUBLIC "-//W3C//DTD SVG 1.1//EN" "http://www.w3.org/Graphics/SVG/1.1/DTD/svg11.dtd">
<!-- Creator: CorelDRAW (Versão OEM) -->
<svg xmlns="http://www.w3.org/2000/svg" xml:space="preserve" width="53.04mm" height="57.2734mm" version="1.1" style="shape-rendering:geometricPrecision; text-rendering:geometricPrecision; image-rendering:optimizeQuality; fill-rule:evenodd; clip-rule:evenodd"
viewBox="0 0 5304 5727.34"
 xmlns:xlink="http://www.w3.org/1999/xlink"
 xmlns:xodm="http://www.corel.com/coreldraw/odm/2003">
 <defs>
  <style type="text/css">
   <![CDATA[
    .fil0 {fill:#373435}
   ]]>
  </style>
 </defs>
 <g id="Camada_x0020_1">
  <metadata id="CorelCorpID_0Corel-Layer"/>
  <path class="fil0" d="M998.69 7.12c895.09,-2.37 1790.18,-4.1 2685.27,-7.12 1114.06,-3.77 1638.35,788.55 1619.57,1629.74 -3.67,164.32 -28.07,330.52 -72.84,493 -192.43,698.36 -461.31,725.92 -1081.99,1033.03 -15.64,7.73 -31.35,15.09 -47.11,22.17l451.67 419.48c854.09,793.24 694.64,1011.97 707.9,2129.93 -374.33,-0.1 -748.65,-0.2 -1122.98,-0.3 4.28,-222.72 8.56,-445.44 12.84,-668.16 -8.9,-420.46 19.74,-320.88 -283.59,-616.61 -668.12,-651.43 -1340.43,-1296.6 -1995.55,-1960.52 -178.53,-180.93 -241.85,-178.76 -273.5,-427.07 703.98,0 1407.96,0 2111.94,0 565.08,0 640.61,-822.47 86.87,-927.54l-2704.62 0 0 3711.32 -1092.6 -395.87 0 -3581.29c0,-384.87 598.76,-854.19 998.72,-854.19z"/>
 </g>
</svg>
